<svg xmlns="http://www.w3.org/2000/svg" xmlns:xlink="http://www.w3.org/1999/xlink" width="400" height="400" viewBox="0 0 400 400">
<rect data-name="background" width="100%" height="100%" fill="#ffffff"></rect><g data-name="container" data="container_num:17" fill="#d41616" transform="translate(15.572827775616759, 169.12796433442944) scale(1.234881426622823)"><circle cx="25" cy="25" r="25"></circle></g><g data-name="monogram" fill="#ffffff" data="id:242" transform="translate(37.57226130474394, 162.95357155422232) scale(1.1577010614414545)"><path d="M6.56,48l-5.984,0c-0.32,0-0.576016-0.2560156-0.576016-0.576016l0-15.77596c0-0.32,0.2560156-0.576016,0.576016-0.576016s0.575976,0.2560156,0.575976,0.576016l0,15.2l4.832,0l0-12.54404c0-0.32,0.2560156-0.575976,0.576016-0.575976l6.464,0l0-4l-9.504,0c-1.951992,0-3.52-1.568008-3.52-3.52l0-9.632c0-0.32,0.2560156-0.576016,0.576016-0.576016l14.17596,0c0.32,0,0.576016,0.2560156,0.576016,0.576016l0,5.40796c0,0.32-0.2560156,0.576016-0.576016,0.576016l-7.61596,0l0,2.848008c0,0.32-0.2560156,0.575976-0.576016,0.575976s-0.576016-0.2559764-0.576016-0.575976l0-3.424024c0-0.32,0.2560156-0.575976,0.576016-0.575976l7.616,0l0-4.256l-13.02404,0l0,9.056c0,1.311992,1.056016,2.368008,2.368008,2.368008l10.048,0c0.32,0,0.575976,0.2559764,0.575976,0.575976l0,5.152c0,0.32-0.2559764,0.544024-0.575976,0.544024l-6.432,0l0,12.57596c0,0.32-0.2560156,0.576016-0.576016,0.576016z"></path></g><g data-name="business_name" fill="#334747" data="id:168" transform="translate(97.27095602769216, 168.6941286691185) scale(1.051238099699583)"><path d="M8.88,32.72l0,7.44l-4.08,0l0-20.72l15.52,0l0,4.12l-11.44,0l0,5.04q1.24-0.72,3-1q1.36-0.2,3.48-0.2l2.24,0l0,4.12l-2.24,0q-2.76,0-4,0.24q-1.08,0.2-2.48,0.96z M46.08,29.64q0-2.2-1.2-3.8q-1.04-1.4-2.92-2.16q-1.72-0.68-3.8-0.68t-3.84,0.72q-1.88,0.76-2.92,2.24q-1.16,1.6-1.16,3.84t1.2,3.84q1.04,1.44,2.92,2.24q1.76,0.72,3.8,0.72t3.84-0.8q1.84-0.84,2.92-2.36q1.16-1.64,1.16-3.8z M50.4,29.6q0,3.4-1.8,6.04q-1.64,2.44-4.52,3.84q-2.76,1.32-5.96,1.32t-5.96-1.32q-2.84-1.36-4.48-3.76q-1.76-2.64-1.76-6t1.8-5.96q1.64-2.4,4.52-3.72q2.76-1.28,5.96-1.28t5.92,1.2q2.84,1.28,4.48,3.64q1.8,2.56,1.8,6z M76.16,29.64q0-2.2-1.2-3.8q-1.04-1.4-2.92-2.16q-1.72-0.68-3.8-0.68t-3.84,0.72q-1.88,0.76-2.92,2.24q-1.16,1.6-1.16,3.84t1.2,3.84q1.04,1.44,2.92,2.24q1.76,0.72,3.8,0.72t3.84-0.8q1.84-0.84,2.92-2.36q1.16-1.64,1.16-3.8z M80.48,29.6q0,3.4-1.8,6.04q-1.64,2.44-4.52,3.84q-2.76,1.32-5.96,1.32t-5.96-1.32q-2.84-1.36-4.48-3.76q-1.76-2.64-1.76-6t1.8-5.96q1.64-2.4,4.52-3.72q2.76-1.28,5.96-1.28t5.92,1.2q2.84,1.28,4.48,3.64q1.8,2.56,1.8,6z M98.32,23.56l-4.12,0l0,12.44l4.12,0q3,0,4.64-1.64t1.64-4.64t-1.62-4.58t-4.66-1.58z M87.32,23.56l-1.84-4.12l12.84,0q3.12,0,5.5,1.18t3.66,3.46q1.32,2.32,1.32,5.54t-1.3,5.6t-3.68,3.66t-5.5,1.28l-8.44,0l0-16.6l-2.56,0z  M152.4,19.44l-2.04,3.32l0,17.4l-4.52,0l0-12.12l-7.32,9.76l-7.32-9.76l0,12.12l-4.52,0l0-17.4l-2.04-3.32l5.04,0l8.84,11.72l8.84-11.72l5.04,0z M177.36,19.44l-8.56,12.36l0,8.36l-4.08,0l0-8.36l-8.72-12.36l5.2,0l5.52,8.16l5.68-8.16l4.96,0z  M203.92,24.84l-1.68-5.4l4.68,0l4.72,15.2l5.56-15.2l4.4,0l-7.28,20.72l-5.56,0l-2.6-8.2l-2.12,8.2l-5.48,0l-7.16-20.72l4.44,0l5.36,15.2z M240.12,33.28l0.56,0l-4.04-7.68l-4.92,9.48q1.36-0.72,3.08-1.16q2.48-0.64,5.32-0.64z M234.52,21.56l-1.36-2.6l4.44,0l11.2,21.2l-4.52,0l-1.64-3.12l-2.48,0q-2.36,0-5,0.56q-2.24,0.44-4.08,1.2q-1.68,0.64-2.04,1.12l-0.12,0.24l-4.32,0z M273.16,19.44l-8.56,12.36l0,8.36l-4.08,0l0-8.36l-8.72-12.36l5.2,0l5.52,8.16l5.68-8.16l4.96,0z"></path></g></svg>